<svg xmlns="http://www.w3.org/2000/svg"  viewBox="0 0 50 50" width="512px" height="512px"><path fill="#4D4D4D" d="M 7.9902344 3 C 6.7102344 3 5.2792969 4.1109375 5.2792969 5.7109375 C 5.2792969 7.2309375 6.2500781 8.8004688 7.5800781 10.980469 C 8.8100781 12.970469 10.339063 15.460391 11.539062 18.650391 C 12.799062 22.020391 12.469453 24.390703 12.189453 26.470703 C 11.909453 28.520703 11.640078 30.479609 13.080078 32.599609 C 13.020078 32.679609 12.979688 32.759844 12.929688 32.839844 C 12.449688 33.639844 12.050391 34.590625 11.900391 35.640625 C 11.740391 36.690625 11.889062 37.829766 12.289062 38.759766 C 12.679063 39.699766 13.250312 40.449844 13.820312 41.089844 C 14.980313 42.369844 16.260469 43.310078 17.230469 44.330078 C 17.700469 44.830078 18.070625 45.350547 18.140625 45.810547 C 18.210625 46.260547 17.999063 46.819609 17.539062 47.349609 C 17.319063 47.599609 17.309297 47.970469 17.529297 48.230469 C 17.769297 48.520469 18.200234 48.550547 18.490234 48.310547 L 18.490234 48.300781 C 19.140234 47.760781 19.800313 46.880234 19.820312 45.740234 C 19.810313 44.630234 19.270781 43.770312 18.800781 43.070312 C 17.800781 41.680313 16.689922 40.599688 15.919922 39.429688 C 15.539922 38.859687 15.249141 38.289766 15.119141 37.759766 C 14.999141 37.229766 15.019922 36.759062 15.169922 36.289062 C 15.279922 35.919063 15.489531 35.540156 15.769531 35.160156 C 17.749531 36.330156 19.589297 36.080547 21.529297 35.810547 C 23.609297 35.530547 25.979609 35.200937 29.349609 36.460938 C 32.539609 37.660938 35.029531 39.189922 37.019531 40.419922 C 39.189531 41.749922 40.759062 42.720703 42.289062 42.720703 C 43.879063 42.720703 45 41.289766 45 40.009766 C 45 38.399766 44.109844 36.48 43.089844 34.25 C 41.649844 31.14 39.859375 27.259375 39.859375 22.859375 C 39.859375 19.849375 41.189375 18.990312 42.609375 18.070312 C 43.729375 17.340312 45 16.519687 45 14.679688 C 45 13.599687 44.059297 11.570313 41.779297 11.570312 C 40.029297 11.570312 39.220859 12.760859 38.630859 13.630859 C 38.020859 14.530859 37.660938 15 36.710938 15 C 36.050938 15 34.990625 14.190547 34.390625 13.560547 C 33.960625 13.150547 33 12.009063 33 11.289062 C 33 10.339063 33.469141 9.9791406 34.369141 9.3691406 C 35.239141 8.7791406 36.429688 7.9707031 36.429688 6.2207031 C 36.429688 3.9407031 34.400312 3 33.320312 3 C 31.480313 3 30.659688 4.270625 29.929688 5.390625 C 29.009687 6.810625 28.150625 8.140625 25.140625 8.140625 C 20.740625 8.140625 16.86 6.3501563 13.75 4.9101562 C 11.52 3.8901562 9.6002344 3 7.9902344 3 z M 7.9902344 5 C 9.1602344 5 10.900156 5.8004687 12.910156 6.7304688 C 16.200156 8.2504687 20.300625 10.140625 25.140625 10.140625 C 29.230625 10.140625 30.609375 8.0304688 31.609375 6.4804688 C 32.319375 5.3804687 32.630312 5 33.320312 5 C 33.330312 5 34.429688 5.1707031 34.429688 6.2207031 C 34.429688 6.8507031 34.12 7.1209375 33.25 7.7109375 C 32.3 8.3509375 31 9.2290625 31 11.289062 C 31 13.069062 32.820469 14.830703 32.980469 14.970703 C 33.170469 15.180703 34.920937 17 36.710938 17 C 38.770938 17 39.649062 15.7 40.289062 14.75 C 40.879063 13.88 41.149297 13.570313 41.779297 13.570312 C 42.829297 13.570312 43 14.649688 43 14.679688 C 43 15.369687 42.619531 15.680625 41.519531 16.390625 C 39.969531 17.390625 37.859375 18.769375 37.859375 22.859375 C 37.859375 27.699375 39.749531 31.799844 41.269531 35.089844 C 42.199531 37.099844 43 38.839766 43 40.009766 C 43 40.259766 42.709063 40.720703 42.289062 40.720703 C 41.329062 40.720703 39.890312 39.840938 38.070312 38.710938 C 36.000312 37.440937 33.420781 35.849844 30.050781 34.589844 C 27.900781 33.789844 26.099062 33.550781 24.539062 33.550781 C 23.309062 33.550781 22.229766 33.700078 21.259766 33.830078 C 19.599766 34.060078 18.399922 34.230625 17.169922 33.640625 C 16.649922 33.390625 16.130547 33.009453 15.560547 32.439453 C 15.000547 31.879453 14.619141 31.359844 14.369141 30.839844 C 13.769141 29.609844 13.939922 28.410234 14.169922 26.740234 C 14.469922 24.540234 14.850156 21.789219 13.410156 17.949219 C 12.150156 14.579219 10.559063 11.999687 9.2890625 9.9296875 C 8.1590625 8.1096875 7.2792969 6.6709375 7.2792969 5.7109375 C 7.2792969 5.2909375 7.7402344 5 7.9902344 5 z M 24 14 A 1 1 0 0 0 24 16 A 1 1 0 0 0 24 14 z M 33 22 A 1 1 0 0 0 33 24 A 1 1 0 0 0 33 22 z"/></svg>