<svg xmlns="http://www.w3.org/2000/svg"  viewBox="0 0 50 50" width="512px" height="512px"><path fill="#FA5252" d="M 7.9902344 4 C 7.2002344 4 6.2792969 4.7209375 6.2792969 5.7109375 C 6.2792969 8.2109375 10.030469 11.780781 12.480469 18.300781 C 14.994651 25.040553 11.595055 28.107358 13.695312 31.681641 C 13.424456 32.043053 13.16517 32.42349 12.929688 32.839844 C 12.451688 33.640844 12.049437 34.587531 11.898438 35.644531 C 11.736437 36.695531 11.891063 37.829766 12.289062 38.759766 C 12.681062 39.698766 13.245266 40.45075 13.822266 41.09375 C 14.980266 42.37375 16.260469 43.310078 17.230469 44.330078 C 17.699469 44.834078 18.068719 45.354453 18.136719 45.814453 C 18.215719 46.261453 18.000062 46.822656 17.539062 47.347656 C 17.320063 47.595656 17.311203 47.974375 17.533203 48.234375 C 17.775203 48.519375 18.202328 48.553547 18.486328 48.310547 L 18.494141 48.304688 C 19.135141 47.757687 19.800406 46.877141 19.816406 45.744141 C 19.810406 44.631141 19.274734 43.773313 18.802734 43.070312 C 17.802734 41.684313 16.690875 40.598594 15.921875 39.433594 C 15.537875 38.861594 15.248047 38.287766 15.123047 37.759766 C 14.996047 37.228766 15.024828 36.760062 15.173828 36.289062 C 15.36292 35.656744 15.835853 35.00237 16.425781 34.373047 C 19.957159 36.346672 23.029989 33.027345 29.699219 35.519531 C 36.219219 37.969531 39.789062 41.720703 42.289062 41.720703 C 43.279063 41.720703 44 40.799766 44 40.009766 C 44 36.539766 38.859375 30.569375 38.859375 22.859375 C 38.859375 16.779375 44 17.779687 44 14.679688 C 44 14.119687 43.429297 12.570312 41.779297 12.570312 C 39.239297 12.570312 39.660938 16 36.710938 16 C 35.310938 16 33.710938 14.289062 33.710938 14.289062 C 33.710938 14.289062 32 12.689063 32 11.289062 C 32 8.3390625 35.429688 8.7607031 35.429688 6.2207031 C 35.429688 4.5707031 33.880312 4 33.320312 4 C 30.220312 4 31.220625 9.140625 25.140625 9.140625 C 17.430625 9.140625 11.460234 4 7.9902344 4 z M 25 12.998047 C 25.2575 12.998047 25.515938 13.094062 25.710938 13.289062 C 26.100938 13.679062 26.100938 14.320938 25.710938 14.710938 C 25.320937 15.100938 24.679062 15.100938 24.289062 14.710938 C 23.899062 14.320937 23.899062 13.679062 24.289062 13.289062 C 24.484063 13.094062 24.7425 12.998047 25 12.998047 z M 34 20.998047 C 34.2575 20.998047 34.515938 21.094063 34.710938 21.289062 C 35.100938 21.679063 35.100938 22.320938 34.710938 22.710938 C 34.320937 23.100938 33.679062 23.100938 33.289062 22.710938 C 32.899062 22.320937 32.899062 21.679063 33.289062 21.289062 C 33.484063 21.094062 33.7425 20.998047 34 20.998047 z"/></svg>